<svg aria-hidden="true" style="position: absolute; width: 0; height: 0; overflow: hidden;" version="1.1"
  xmlns="http://www.w3.org/2000/svg" xmlns:xlink="http://www.w3.org/1999/xlink">
  <defs>
    <symbol id="close-burger" viewBox="0 0 32 32">
      <path
        d="M23.733 10.304l-1.504-1.504-5.963 5.963-5.963-5.963-1.504 1.504 5.963 5.963-5.963 5.963 1.504 1.504 5.963-5.963 5.963 5.963 1.504-1.504-5.963-5.963 5.963-5.963z">
      </path>
    </symbol>
    <symbol id="open-burger" viewBox="0 0 32 32">
      <path
        d="M6.4 11.733v-2.133h19.2v2.133h-19.2zM6.4 17.067h19.2v-2.133h-19.2v2.133zM6.4 22.4h19.2v-2.133h-19.2v2.133z">
      </path>
    </symbol>

    <symbol id="about-icon-1" viewBox="0 0 69 32">
      <path
        d="M0.982 8.661v-7.851h13.141v31.189h-8.747v-23.339h-4.395zM18.378 15.957c0-4.892 0.995-8.747 2.987-11.563s5.12-4.224 9.387-4.224 7.395 1.408 9.387 4.224c2.020 2.816 3.029 6.67 3.029 11.563 0 4.949-0.996 8.832-2.987 11.648s-5.134 4.224-9.429 4.224c-4.295 0-7.438-1.408-9.429-4.224-1.963-2.816-2.944-6.699-2.944-11.648zM34.89 15.957c0-2.56-0.27-4.508-0.811-5.845-0.541-1.365-1.65-2.048-3.328-2.048s-2.788 0.683-3.328 2.048c-0.541 1.337-0.811 3.285-0.811 5.845 0 2.617 0.256 4.608 0.768 5.973 0.54 1.337 1.664 2.005 3.371 2.005s2.816-0.669 3.328-2.005c0.54-1.365 0.811-3.357 0.811-5.973zM68.223 21.077h-6.869v7.083h-8.021v-7.083h-6.912v-7.552h6.912v-7.125h8.021v7.125h6.869v7.552z">
      </path>
    </symbol>

    <symbol id="about-icon-2" viewBox="0 0 32 32">
      <path
        d="M14.667 2.667l9.731 3.040c0.271 0.085 0.509 0.254 0.677 0.483s0.259 0.506 0.259 0.79v2.353h2.667c0.354 0 0.693 0.14 0.943 0.391s0.391 0.589 0.391 0.943v2.667h-17.333v-2.667c0-0.354 0.14-0.693 0.391-0.943s0.589-0.391 0.943-0.391h9.333v-1.373l-8-2.501-8 2.501v9.872c-0 0.816 0.187 1.622 0.547 2.354s0.884 1.373 1.53 1.871l0.252 0.181 5.671 3.868 5.043-3.44h-6.376c-0.354 0-0.693-0.14-0.943-0.391s-0.391-0.589-0.391-0.943v-5.333h17.333v5.333c0 0.354-0.14 0.693-0.391 0.943s-0.589 0.391-0.943 0.391l-4.293 0.001c-0.516 0.68-1.143 1.28-1.867 1.773l-7.173 4.892-7.173-4.891c-1.077-0.734-1.958-1.72-2.566-2.872s-0.927-2.435-0.927-3.739v-10.852c0-0.284 0.091-0.561 0.259-0.79s0.405-0.398 0.677-0.482l9.731-3.041z">
      </path>
    </symbol>

    <symbol id="about-icon-3" viewBox="0 0 32 32">
      <path
        d="M5.862 7.162c-0.294 0.069-0.106 0.056-0.35 0.088-1.044 0.225-0.269 0.425 0.35-0.088zM24.219 7.581c0.075-0.050 0.338-0.306-0.481-0.556 0.050 0.256-0.169 0.231-0.169 0.375 0.606 0.55 0.856 1.506 1.631 1.706 0.15-0.688-0.688-1.025-0.981-1.525zM5.306 6.963c0.094 0.556 0.513-0.588 0.519-0.994-0.162 0.094-0.325 0.188-0.494 0.263 0.394 0.2 0.050 0.412-0.375 0.731-0.862 1.075 0.806-0.838 0.35 0zM16 0c-8.838 0-16 7.162-16 16 0 8.831 7.162 16 16 16s16-7.169 16-16c0-8.838-7.162-16-16-16zM16.425 5.362l0.075 0.025c-0.3 0.388 1.562 1.519 0.225 1.612-1.25 0.356 0.525-0.325-0.444-0.206 0.512-0.713-0.406-0.725 0.144-1.431zM8.838 6.388c-0.45-0.375-1.863 0.513-1.369 0.3 1.225-0.481 0.081 0.050 0.369 0.625-0.263 0.544-0.088-0.537-0.737 0.106-0.469 0.106-1.619 1.169-1.475 0.844-0.037 0.506-1.369 1.106-1.55 1.95-0.438 1.169-0.106-0.044-0.188-0.5-0.625-0.794-1.763 1.344-1.425 2.188 0.569-1 0.525-0.106 0.112 0.338 0.419 0.769-0.381 1.769 0.413 2.338 0.35 0.081 1.050-1.175 0.744 0.131 0.212-1.131 0.588 0.269 1.194-0.044 0.037 0.594 0.406 0.319 0.487 1.038 1.013-0.075 1.938 1.638 0.731 1.962 0.181-0.050 0.537 0.269 0.95 0.025 0.7 0.556 2.544 0.625 2.594 2-1.269 0.606-0.312 2.269-1.412 2.862-1.263-0.188-0.431 1.556-0.963 1.356 0.213 1.256-1.275-0.162-0.7 0.531 1.056 0.65-0.463 0.519 0.013 0.994-0.531-0.113 0.331 0.987 0.475 1.394 0.763 1.238-0.656-0.275-1.075-0.687-0.4-0.8-1.344-2.331-1.606-3.588-0.15-1.825-1.563-3.050-1.888-4.831-0.325-0.994 0.894-2.587 0.237-3.144-0.569-0.444-0.337-1.963-0.675-2.763 0.844-3.656 3.525-6.737 6.744-8.562-0.331 0.244 1.894-0.631 1.638-0.419-0.069 0.156 1.3-0.594 2.125-0.706-0.088 0.013-2.144 0.75-1.575 0.65-0.881 0.431-0.087 0.188 0.35-0.031-0.875 0.644-1.55 0.462-2.544 1.031-1 0.262-0.794 1.3-1.506 1.819 0.419 0.075 1.469-1.081 2.081-1.487 1.406-0.681-0.712 1.237 0.625 0.412-0.45 0.419-0.356 1.087-0.631 1.275-0.138-0.037 0.544 0.325-0.562 0.594zM11.025 3.513c-0.144 0.194-0.344 0.612-0.462 0.356-0.162 0.081-0.225 0.431-0.531 0.15 0.181-0.131 0.369-0.444 0.012-0.25 0.162-0.175 1.612-0.669 1.531-0.856 0.256-0.163 0.231-0.244-0.063-0.144-0.15-0.050 0.356-0.475 1.031-0.531 0.094 0 0.131 0.063-0.038 0.044-1.019 0.313-0.581 0.225 0.106 0-0.262 0.15-0.444 0.194-0.488 0.263 0.688-0.25-0.037 0.181 0.119 0.15-0.194 0.1 0.031 0.131-0.344 0.275 0.069-0.056-0.612 0.406-0.206 0.269-0.394 0.375-0.569 0.381-0.669 0.275zM11.625 4.406c0.013-0.6 0.875-0.981 0.769-1.013 1.062-0.5-0.369 0.019 0.469-0.431 0.313-0.031 0.975-1.031 1.894-1.094 1.012-0.306 0.544 0.019 1.294-0.269l-0.15 0.125c-0.131 0.019 0.031 0.25-0.444 0.6-0.050 0.544-0.906 0.294-0.481 0.875-0.275-0.394-0.688-0.013-0.169 0.025-0.556 0.425-1.85 0.5-2.469 1.206-0.4 0.575-0.769 0.394-0.713-0.025zM16.069 6.406c-0.425 1.025-0.837-0.15-0.087-0.338 0.187 0.1 0.262 0.131 0.087 0.338zM14.469 4.356c-0.125-0.462-0.025-0.219 0.719-0.438 0.512 0.369-0.456 0.612-0.719 0.438zM26.106 22.7c-0.588-1.012 0.712-1.95 1.15-2.8-0.056 0.994-0.181 1.975-1.15 2.8zM28.319 11.131c-0.637 0.050-1.212 0.2-1.787-0.163-1.325-1.45 0.244 1.638 0.681 0.375 1.575 0.6-0.025 3.188-1.019 2.919-0.556-1.2-1.244-2.519-2.456-3.106 0.931 1.031 1.394 2.3 2.394 3.231 0.069 1.3 1.387-0.475 1.306 0.531 0.125 1.731-1.956 2.769-1.594 4.506 0.775 1.581-1.494 1.869-1.238 3.288-0.912 1.019-1.888 2.394-3.525 2.175 0-0.863-0.438-1.594-0.538-2.481-0.888-1.125 0.938-2.331-0.194-3.506-1.306-0.294 0.269-2.094-1.075-1.925-0.806-0.806-1.988-0.025-3.144-0.019-1.45 0.138-2.944-1.781-2.3-3.138-0.513-1.412 1.625-1.825 1.681-3.069 1.025-0.856 2.481-0.75 3.869-0.95-0.1 0.994 0.95 1 1.744 1.331 0.444-1.075 1.825 0.175 2.769-0.506 0.325-1.587-0.919-0.631-1.631-1.137-0.862-1.263 1.844-0.65 1.562-1.312-1.050-0.006-0.456-1.294-1.2-0.575 0.669 0.119-0.119 0.644-0.1 0.044-1.012-0.294-0.037 1.15-0.55 1.288-0.781-0.325-0.413 0.369-0.331 0.475-0.338 0.731-0.75-1.075-1.706-1.025-0.95-0.869-0.375 0.394 0.45 0.6-0.175 0.050 0.1 0.769-0.119 0.462-0.681-0.938-1.975-1.563-2.744-0.412-0.081 1.075-2.269 1.381-1.919 0.125-0.512-1.3 1.588-0.038 1.394-1.075-1.35-0.894 0.369-0.606 0.825-1.444 1.038 0.031 0.044-0.85 0.531-1.106-0.050 0.956 0.794 0.775 1.462 0.594-0.162-0.55 0.4-0.531 0.056-0.987 1.55-0.619-1.181 0.287-0.631-1.069-0.669-0.462-0.281 1.019 0 1.175 0.019 0.456-0.369 1.019-0.9 0.063-0.775 0.506-0.694-0.513-0.744-0.406-0.088-0.394 0.588-0.412 0.594-1.1-0.056-0.438-0.044-0.669 0.269-0.694 0.025 0.063 1.281 0.081 1.725 0.6-1.212-0.244-0.181 0.2 0.362 0.45-0.581-0.456 0.231 0-0.244-0.519 0.188 0.038-0.519-0.712 0.206-0.056-0.394-0.469 0.769-0.331 0.081-0.681 1.006 0.281 0.412 0.025-0.181-0.231-1.637-0.975 2.894 1.319 1.044 0.3 1.181 0.256-2.525-0.913-0.838-0.4-0.644-0.281-0.019-0.125 0.563 0.056-1.044-0.325-2.606-0.931-2.544-0.956 0.362 0.025 0.719 0.106 1.062 0.206 1.069 0.319-0.306-0.075-0.012-0.069 3.675 0.944 6.894 3.406 8.85 6.625 0.456 0.481 1.7 3.662 1.050 2.25 0.294 1.125 0.337 2.337 0.494 3.487-0.325-0.362-0.688-1.7-1-2.444-0.131 0.288-0.281-0.406-0.763-0.594z">
      </path>
    </symbol>

    <symbol id="about-icon-4" viewBox="0 0 32 32">
      <path
        d="M25.333 18.667v-10.667c0-1.467-1.2-2.667-2.667-2.667h-18.667c-1.467 0-2.667 1.2-2.667 2.667v10.667c0 1.467 1.2 2.667 2.667 2.667h18.667c1.467 0 2.667-1.2 2.667-2.667zM13.333 17.333c-2.213 0-4-1.787-4-4s1.787-4 4-4c2.213 0 4 1.787 4 4s-1.787 4-4 4zM30.667 9.333v14.667c0 1.467-1.2 2.667-2.667 2.667h-22.667v-2.667h22.667v-14.667h2.667z">
      </path>
    </symbol>

    <symbol id="arrow" viewBox="0 0 32 32">
      <path
        d="M0 17.333h23.448l-7.057 7.057 1.885 1.885 10.276-10.276-10.276-10.276-1.885 1.885 7.057 7.057h-23.448v2.667z">
      </path>
    </symbol>

    <symbol id="services-icon-1" viewBox="0 0 32 32">
      <path
        d="M28 4h-24c-1.467 0-2.667 1.2-2.667 2.667v18.667c0 1.467 1.2 2.667 2.667 2.667h24c1.467 0 2.667-1.2 2.667-2.667v-18.667c0-1.467-1.2-2.667-2.667-2.667zM26.667 25.333h-9.333c-0.733 0-1.333-0.6-1.333-1.333v-5.333c0-0.733 0.6-1.333 1.333-1.333h9.333c0.733 0 1.333 0.6 1.333 1.333v5.333c0 0.733-0.6 1.333-1.333 1.333z">
      </path>
    </symbol>

    <symbol id="services-icon-2" viewBox="0 0 32 32">
      <path
        d="M23 0h-14c-1.65 0-3 1.35-3 3v26c0 1.65 1.35 3 3 3h14c1.65 0 3-1.35 3-3v-26c0-1.65-1.35-3-3-3zM12 1.5h8v1h-8v-1zM16 30c-0.53 0-1.039-0.211-1.414-0.586s-0.586-0.884-0.586-1.414 0.211-1.039 0.586-1.414c0.375-0.375 0.884-0.586 1.414-0.586s1.039 0.211 1.414 0.586c0.375 0.375 0.586 0.884 0.586 1.414s-0.211 1.039-0.586 1.414c-0.375 0.375-0.884 0.586-1.414 0.586zM24 24h-16v-20h16v20z">
      </path>
    </symbol>

    <symbol id="services-icon-3" viewBox="0 0 32 32">
      <path
        d="M12 28.444c1.227 0 2.222-0.995 2.222-2.222s-0.995-2.222-2.222-2.222c-1.227 0-2.222 0.995-2.222 2.222s0.995 2.222 2.222 2.222z">
      </path>
      <path
        d="M23.556 28.444c1.227 0 2.222-0.995 2.222-2.222s-0.995-2.222-2.222-2.222c-1.227 0-2.222 0.995-2.222 2.222s0.995 2.222 2.222 2.222z">
      </path>
      <path
        d="M29.422 5.68c-0.083-0.108-0.189-0.195-0.311-0.255s-0.256-0.091-0.391-0.092h-20.533l-0.4-1.271c-0.044-0.136-0.12-0.26-0.222-0.361s-0.227-0.175-0.364-0.217l-3.644-1.12c-0.112-0.034-0.23-0.046-0.347-0.035s-0.23 0.045-0.334 0.1c-0.209 0.111-0.366 0.3-0.435 0.527s-0.046 0.471 0.064 0.68c0.111 0.209 0.3 0.366 0.527 0.435l3.191 0.978 4.071 12.862-1.449 1.191-0.116 0.116c-0.358 0.415-0.561 0.941-0.574 1.489s0.165 1.084 0.503 1.515c0.242 0.295 0.55 0.528 0.899 0.683s0.729 0.225 1.11 0.206h14.836c0.236 0 0.462-0.094 0.629-0.26s0.26-0.393 0.26-0.629-0.094-0.462-0.26-0.629c-0.167-0.167-0.393-0.26-0.629-0.26h-14.978c-0.102-0.004-0.202-0.033-0.29-0.087s-0.16-0.128-0.21-0.218c-0.050-0.089-0.076-0.19-0.076-0.292s0.027-0.203 0.077-0.292l2.142-1.778h13.716c0.203 0.006 0.402-0.058 0.564-0.181s0.276-0.298 0.325-0.495l2.844-11.556c0.027-0.133 0.024-0.269-0.010-0.4s-0.097-0.252-0.185-0.355z">
      </path>
    </symbol>

    <symbol id="services-icon-4" viewBox="0 0 32 32">
      <path
        d="M4 6v20c0 0.53 0.211 1.039 0.586 1.414s0.884 0.586 1.414 0.586h20c0.53 0 1.039-0.211 1.414-0.586s0.586-0.884 0.586-1.414v-20c0-0.53-0.211-1.039-0.586-1.414s-0.884-0.586-1.414-0.586h-20c-0.53 0-1.039 0.211-1.414 0.586s-0.586 0.884-0.586 1.414zM12.667 13.333c0 0.53-0.211 1.039-0.586 1.414s-0.884 0.586-1.414 0.586c-0.53 0-1.039-0.211-1.414-0.586s-0.586-0.884-0.586-1.414c0-0.53 0.211-1.039 0.586-1.414s0.884-0.586 1.414-0.586c0.53 0 1.039 0.211 1.414 0.586s0.586 0.884 0.586 1.414zM8 18.485v2.182h-1.333v-2.182c0-0.525 0.247-0.95 0.558-1.264 0.306-0.307 0.7-0.538 1.091-0.709 0.779-0.34 1.703-0.511 2.351-0.511s1.572 0.171 2.351 0.511c0.391 0.171 0.785 0.402 1.091 0.709 0.311 0.314 0.558 0.739 0.558 1.264v2.182h-1.333v-2.182c0-0.079-0.031-0.184-0.171-0.325-0.146-0.147-0.376-0.295-0.679-0.427-0.61-0.267-1.352-0.4-1.817-0.4s-1.207 0.133-1.817 0.4c-0.303 0.133-0.534 0.281-0.679 0.427-0.139 0.14-0.171 0.245-0.171 0.324zM18.837 18.161c-0.14 0.14-0.171 0.245-0.171 0.324v2.182h-1.333v-2.182c0-0.525 0.247-0.95 0.558-1.264 0.306-0.307 0.7-0.538 1.091-0.709 0.779-0.34 1.703-0.511 2.351-0.511s1.572 0.171 2.351 0.511c0.391 0.171 0.785 0.402 1.091 0.709 0.312 0.314 0.558 0.739 0.558 1.264v2.182h-1.333v-2.182c0-0.079-0.031-0.184-0.171-0.324-0.145-0.147-0.376-0.295-0.679-0.427-0.609-0.267-1.352-0.4-1.817-0.4s-1.207 0.133-1.817 0.4c-0.303 0.132-0.533 0.28-0.679 0.427v0.001zM21.333 15.333c-0.53 0-1.039-0.211-1.414-0.586s-0.586-0.884-0.586-1.414c0-0.53 0.211-1.039 0.586-1.414s0.884-0.586 1.414-0.586c0.53 0 1.039 0.211 1.414 0.586s0.586 0.884 0.586 1.414c0 0.53-0.211 1.039-0.586 1.414s-0.884 0.586-1.414 0.586zM18 12c0 0.53-0.211 1.039-0.586 1.414s-0.884 0.586-1.414 0.586-1.039-0.211-1.414-0.586c-0.375-0.375-0.586-0.884-0.586-1.414s0.211-1.039 0.586-1.414c0.375-0.375 0.884-0.586 1.414-0.586s1.039 0.211 1.414 0.586c0.375 0.375 0.586 0.884 0.586 1.414zM14.831 16.777l-0.995-0.888c0.35-0.392 0.787-0.516 1.165-0.553 0.229-0.022 0.513-0.015 0.747-0.009 0.095 0.003 0.181 0.005 0.252 0.005s0.157-0.003 0.252-0.005c0.233-0.006 0.517-0.014 0.747 0.008 0.379 0.037 0.815 0.161 1.165 0.553l-0.995 0.888c-0.047-0.053-0.112-0.095-0.301-0.114-0.101-0.010-0.219-0.011-0.369-0.007l-0.135 0.004c-0.113 0.003-0.242 0.007-0.365 0.007s-0.251-0.004-0.365-0.007l-0.135-0.003c-0.151-0.003-0.269-0.002-0.369 0.008-0.189 0.018-0.254 0.061-0.301 0.113z">
      </path>
    </symbol>

    <symbol id="services-icon-5" viewBox="0 0 32 32">
      <path
        d="M7.333 2.667h15.333c0.884 0 1.732 0.351 2.357 0.976s0.976 1.473 0.976 2.357v9.084c-1.519-0.492-3.145-0.555-4.698-0.182s-2.972 1.169-4.102 2.298c-1.129 1.129-1.925 2.549-2.298 4.102s-0.311 3.179 0.182 4.698h-9.084c0 0.354 0.14 0.693 0.391 0.943s0.589 0.39 0.943 0.39h8.309c0.382 0.732 0.866 1.405 1.437 2h-9.747c-0.884 0-1.732-0.351-2.357-0.976s-0.976-1.473-0.976-2.357v-20c0-0.884 0.351-1.732 0.976-2.357s1.473-0.976 2.357-0.976zM9.333 6.667c-0.354 0-0.693 0.14-0.943 0.391s-0.391 0.589-0.391 0.943v1.333c0 0.354 0.14 0.693 0.391 0.943s0.589 0.39 0.943 0.39h10.667c0.354 0 0.693-0.14 0.943-0.39s0.391-0.589 0.391-0.943v-1.333c0-0.354-0.14-0.693-0.391-0.943s-0.589-0.391-0.943-0.391h-10.667z">
      </path>
      <path
        d="M30.667 23.333c0-1.945-0.773-3.81-2.148-5.185s-3.241-2.148-5.185-2.148c-1.945 0-3.81 0.773-5.185 2.148s-2.148 3.24-2.148 5.185c0 1.945 0.773 3.81 2.148 5.185s3.24 2.148 5.185 2.148c1.945 0 3.81-0.773 5.185-2.148s2.148-3.241 2.148-5.185zM22.552 20.129l3.741 2.453c0.116 0.074 0.211 0.177 0.276 0.298s0.099 0.257 0.097 0.395c0 0.139-0.033 0.275-0.096 0.399-0.060 0.122-0.151 0.226-0.264 0.301l-3.743 2.553c-0.065 0.044-0.136 0.078-0.211 0.103-0.173 0.055-0.361 0.044-0.527-0.031-0.096-0.045-0.183-0.106-0.257-0.18-0.072-0.079-0.131-0.169-0.173-0.267-0.042-0.1-0.063-0.208-0.063-0.316v-5.011c-0.001-0.16 0.045-0.318 0.132-0.453s0.211-0.242 0.357-0.307c0.116-0.054 0.245-0.078 0.373-0.067s0.251 0.054 0.357 0.127v0.001z">
      </path>
    </symbol>

    <symbol id="services-icon-6" viewBox="0 0 32 32">
      <path
        d="M21.653 15.347l2.093-2.093-5-5-2.093 2.093-5.52-5.507c-1.040-1.040-2.733-1.040-3.773 0l-2.533 2.533c-1.040 1.040-1.040 2.733 0 3.773l5.507 5.507-6.333 6.347v5h5l6.347-6.347 5.507 5.507c1.267 1.267 2.973 0.8 3.773 0l2.533-2.533c1.040-1.040 1.040-2.733 0-3.773l-5.507-5.507zM12.24 14.76l-5.52-5.507 2.52-2.533 1.693 1.693-1.573 1.587 1.88 1.88 1.587-1.587 1.933 1.933-2.52 2.533zM22.747 25.28l-5.507-5.507 2.533-2.533 1.933 1.933-1.587 1.587 1.88 1.88 1.587-1.587 1.693 1.693-2.533 2.533zM27.613 9.387c0.124-0.123 0.222-0.27 0.289-0.431s0.101-0.334 0.101-0.509-0.034-0.348-0.101-0.509c-0.067-0.161-0.165-0.308-0.289-0.431l-3.12-3.12c-0.627-0.627-1.493-0.387-1.88 0l-2.44 2.44 5 5 2.44-2.44z">
      </path>
    </symbol>

    <symbol id="slider-icon" viewBox="0 0 38 32">
      <path
        d="M0.165 27.002l2.623 4.998c10.031-5.090 15.047-12.147 15.047-21.171 0-3.008-0.943-5.565-2.83-7.67s-4.118-3.158-6.695-3.158c-2.301 0-4.21 0.81-5.729 2.429s-2.278 3.61-2.278 5.97c0 2.221 0.782 4.176 2.347 5.865s3.543 2.672 5.936 2.95c0 3.748-2.807 7.011-8.421 9.787zM19.977 27.002l2.692 4.998c9.986-5.090 14.978-12.147 14.978-21.171 0-3.008-0.932-5.565-2.795-7.67s-4.084-3.158-6.661-3.158c-2.301 0-4.222 0.81-5.763 2.429s-2.312 3.61-2.312 5.97c0 2.221 0.782 4.176 2.347 5.865s3.566 2.672 6.005 2.95c0 3.748-2.83 7.011-8.49 9.787z">
      </path>
    </symbol>

    <symbol id="footer-icon" viewBox="0 0 32 32">
      <path
        d="M31.17 15.979c0 1.026-0.104 2.050-0.309 3.049-0.2 0.975-0.496 1.932-0.884 2.847-0.379 0.899-0.85 1.765-1.399 2.573-0.541 0.803-1.165 1.556-1.85 2.242-0.687 0.684-1.442 1.306-2.245 1.849-0.811 0.546-1.678 1.016-2.577 1.397-0.916 0.386-1.876 0.682-2.85 0.882-1 0.206-2.028 0.311-3.056 0.311s-2.056-0.105-3.055-0.311c-0.976-0.2-1.935-0.496-2.851-0.882-0.899-0.381-1.768-0.851-2.578-1.397-0.802-0.544-1.558-1.166-2.243-1.849-0.686-0.686-1.31-1.439-1.852-2.242-0.547-0.808-1.018-1.674-1.399-2.573-0.388-0.915-0.685-1.872-0.886-2.847-0.203-0.999-0.307-2.023-0.307-3.049s0.104-2.053 0.307-3.050c0.201-0.975 0.498-1.934 0.886-2.847 0.381-0.899 0.852-1.766 1.399-2.574 0.542-0.803 1.166-1.555 1.852-2.242 0.685-0.684 1.441-1.304 2.243-1.847 0.81-0.548 1.679-1.018 2.578-1.4 0.916-0.387 1.875-0.684 2.851-0.882 0.999-0.204 2.027-0.308 3.055-0.308s2.056 0.104 3.056 0.308c0.974 0.198 1.933 0.495 2.85 0.882 0.899 0.382 1.767 0.851 2.577 1.4 0.802 0.543 1.558 1.163 2.245 1.847 0.685 0.687 1.309 1.439 1.851 2.242 0.549 0.808 1.020 1.675 1.399 2.574 0.388 0.914 0.684 1.872 0.884 2.847 0.205 0.996 0.309 2.023 0.309 3.050zM10.472 4.277c-3.613 1.704-6.309 5.028-7.15 9.034 0.342 0.003 5.74 0.071 11.961-1.579-2.242-3.978-4.638-7.225-4.811-7.455zM16.356 13.724c-6.671 1.994-13.072 1.851-13.301 1.842-0.004 0.139-0.010 0.274-0.010 0.413 0 3.323 1.256 6.353 3.319 8.644-0.004-0.007 3.541-6.288 10.532-8.545 0.169-0.056 0.341-0.107 0.511-0.155-0.325-0.735-0.68-1.472-1.051-2.198zM24.555 6.269c-2.281-2.008-5.276-3.227-8.556-3.227-1.053 0-2.074 0.127-3.053 0.362 0.194 0.26 2.628 3.484 4.843 7.546 4.889-1.83 6.734-4.635 6.766-4.682zM18.29 18.066c-0.029 0.010-0.058 0.018-0.086 0.028-7.644 2.661-10.14 8.023-10.167 8.082 2.199 1.708 4.958 2.739 7.963 2.739 1.794 0 3.503-0.365 5.058-1.025-0.192-1.13-0.945-5.092-2.768-9.823zM23.239 26.708c2.909-1.96 4.975-5.073 5.551-8.678-0.267-0.086-3.891-1.232-8.073-0.562 1.699 4.663 2.39 8.461 2.522 9.241zM18.787 12.879c0.301 0.617 0.592 1.245 0.861 1.876 0.096 0.226 0.189 0.448 0.28 0.67 4.451-0.559 8.835 0.382 9.023 0.42-0.030-3.067-1.128-5.881-2.946-8.085-0.025 0.035-2.102 3.033-7.218 5.119z">
      </path>
    </symbol>

    <symbol id="instagram" viewBox="0 0 32 32">
      <path
        d="M16.001 0.829c-4.12 0-4.637 0.018-6.255 0.092-1.615 0.074-2.717 0.33-3.682 0.705-0.998 0.388-1.844 0.906-2.687 1.749s-1.362 1.69-1.751 2.687c-0.376 0.965-0.632 2.068-0.705 3.682-0.072 1.618-0.091 2.136-0.091 6.256s0.018 4.636 0.092 6.254c0.074 1.615 0.33 2.717 0.705 3.682 0.388 0.998 0.906 1.844 1.75 2.687s1.689 1.363 2.686 1.751c0.965 0.375 2.068 0.631 3.683 0.705 1.618 0.074 2.135 0.092 6.255 0.092s4.636-0.018 6.254-0.092c1.615-0.074 2.719-0.33 3.684-0.705 0.997-0.388 1.843-0.907 2.686-1.751 0.844-0.843 1.362-1.69 1.751-2.687 0.373-0.965 0.629-2.068 0.705-3.682 0.073-1.618 0.092-2.134 0.092-6.254s-0.019-4.637-0.092-6.255c-0.076-1.615-0.332-2.717-0.705-3.682-0.389-0.998-0.907-1.844-1.751-2.687s-1.688-1.362-2.686-1.749c-0.967-0.375-2.070-0.631-3.685-0.705-1.618-0.074-2.133-0.092-6.255-0.092h0.005zM14.64 3.563c0.404-0.001 0.855 0 1.361 0 4.051 0 4.531 0.015 6.13 0.087 1.479 0.068 2.282 0.315 2.817 0.522 0.708 0.275 1.213 0.604 1.743 1.135s0.86 1.037 1.135 1.745c0.208 0.534 0.455 1.337 0.522 2.816 0.073 1.599 0.089 2.080 0.089 6.128s-0.016 4.529-0.089 6.128c-0.068 1.479-0.315 2.282-0.522 2.816-0.275 0.708-0.604 1.212-1.135 1.743s-1.035 0.86-1.743 1.135c-0.534 0.209-1.338 0.455-2.817 0.523-1.599 0.073-2.080 0.089-6.13 0.089s-4.531-0.016-6.13-0.089c-1.479-0.068-2.282-0.315-2.817-0.523-0.708-0.275-1.214-0.604-1.745-1.135s-0.86-1.035-1.135-1.744c-0.208-0.534-0.455-1.337-0.522-2.816-0.073-1.599-0.087-2.080-0.087-6.131s0.015-4.529 0.087-6.128c0.068-1.479 0.315-2.282 0.522-2.817 0.275-0.708 0.604-1.214 1.135-1.745s1.037-0.86 1.745-1.135c0.535-0.209 1.338-0.455 2.817-0.523 1.399-0.063 1.942-0.082 4.769-0.085v0.004zM24.099 6.082c1.005 0 1.821 0.815 1.821 1.82s-0.815 1.82-1.821 1.82c-1.005 0-1.82-0.815-1.82-1.82s0.815-1.82 1.82-1.82zM16.001 8.209c-4.302 0-7.791 3.488-7.791 7.791s3.488 7.789 7.791 7.789c4.302 0 7.789-3.487 7.789-7.789s-3.487-7.791-7.789-7.791zM16.001 10.943c2.793 0 5.057 2.264 5.057 5.057s-2.264 5.057-5.057 5.057c-2.793 0-5.057-2.264-5.057-5.057s2.264-5.057 5.057-5.057z">
      </path>
    </symbol>

    <symbol id="telegram" viewBox="0 0 32 32">
      <path
        d="M30.276 1.724c0.362 0.362 0.485 0.9 0.316 1.383l-9.333 26.667c-0.181 0.516-0.658 0.869-1.204 0.892s-1.051-0.291-1.273-0.791l-5.125-11.531-11.531-5.125c-0.5-0.222-0.813-0.727-0.791-1.273s0.376-1.024 0.892-1.204l26.667-9.333c0.484-0.169 1.021-0.046 1.383 0.316zM16.257 17.629l3.595 8.090 6.292-17.978-9.888 9.888zM24.259 5.855l-17.978 6.292 8.090 3.596 9.888-9.888z">
      </path>
    </symbol>

    <symbol id="youtube" viewBox="0 0 44 32">
      <path
        d="M38.567 1.23c1.808 0.496 3.231 1.958 3.714 3.814 0.878 3.364 0.878 10.382 0.878 10.382s0 7.018-0.878 10.382c-0.483 1.856-1.907 3.317-3.714 3.814-3.276 0.901-16.413 0.901-16.413 0.901s-13.137 0-16.413-0.901c-1.808-0.496-3.231-1.958-3.714-3.814-0.878-3.364-0.878-10.382-0.878-10.382s0-7.019 0.878-10.382c0.483-1.856 1.907-3.318 3.714-3.814 3.276-0.901 16.413-0.901 16.413-0.901s13.137 0 16.413 0.901zM18.215 9.518v13.128l10.503-6.564-10.503-6.564z">
      </path>
    </symbol>
  </defs>
</svg>